  0
SECTION
  2
HEADER
  9
$ACADVER
  1
AC1009
  9
$EXTMIN
 10
0.0
 20
0.0
 30
0.0
  9
$EXTMAX
 10
1000.0
 20
1000.0
 30
0.0
  9
$FILLMODE
 70
 0
  9
$SPLFRAME
 70
 1
  0
ENDSEC
  0
SECTION
  2
TABLES
  0
TABLE
  2
LAYER
 70
1
  0
LAYER
  2
0
 70
     0
 62
     7
  6
CONTINUOUS
  0
ENDTAB
  0
ENDSEC
  0
SECTION
  2
ENTITIES
  0
LINE
  8
0
 62
     12
 10
6.39681
 20
3.19905
 30
0.0
 11
26.529
 21
3.19905
 31
0.0
  0
LINE
  8
0
 62
     0
 10
0
 20
3.19903
 30
0.0
 11
6.39681
 21
3.19903
 31
0.0
  0
LINE
  8
0
 62
     7
 10
10.7981
 20
4.51525
 30
0.0
 11
10.9489
 21
5.21338
 31
0.0
  0
LINE
  8
0
 62
     7
 10
10.9489
 20
5.21338
 30
0.0
 11
7.6881
 21
5.21338
 31
0.0
  0
LINE
  8
0
 62
     7
 10
7.6881
 20
5.21338
 30
0.0
 11
7.53733
 21
4.51525
 31
0.0
  0
LINE
  8
0
 62
     7
 10
7.53733
 20
4.51525
 30
0.0
 11
8.77692
 21
4.51525
 31
0.0
  0
LINE
  8
0
 62
     7
 10
8.77692
 20
4.51525
 30
0.0
 11
8.05658
 21
1.14214
 31
0.0
  0
LINE
  8
0
 62
     7
 10
8.05658
 20
1.14214
 30
0.0
 11
8.8941
 21
1.14214
 31
0.0
  0
LINE
  8
0
 62
     7
 10
8.8941
 20
1.14214
 30
0.0
 11
9.61447
 21
4.51525
 31
0.0
  0
LINE
  8
0
 62
     7
 10
9.61447
 20
4.51525
 30
0.0
 11
10.7981
 21
4.51525
 31
0.0
  0
LINE
  8
0
 62
     7
 10
9.991
 20
1.14214
 30
0.0
 11
10.7727
 21
1.14214
 31
0.0
  0
LINE
  8
0
 62
     7
 10
10.7727
 20
1.14214
 30
0.0
 11
11.1132
 21
2.7449
 31
0.0
  0
LINE
  8
0
 62
     7
 10
11.1132
 20
2.7449
 30
0.0
 11
11.158
 21
2.90593
 31
0.0
  0
LINE
  8
0
 62
     7
 10
11.158
 20
2.90593
 30
0.0
 11
11.22
 21
3.04546
 31
0.0
  0
LINE
  8
0
 62
     7
 10
11.22
 20
3.04546
 30
0.0
 11
11.299
 21
3.16351
 31
0.0
  0
LINE
  8
0
 62
     7
 10
11.299
 20
3.16351
 30
0.0
 11
11.3952
 21
3.26014
 31
0.0
  0
LINE
  8
0
 62
     7
 10
11.3952
 20
3.26014
 30
0.0
 11
11.5084
 21
3.33524
 31
0.0
  0
LINE
  8
0
 62
     7
 10
11.5084
 20
3.33524
 30
0.0
 11
11.6388
 21
3.38889
 31
0.0
  0
LINE
  8
0
 62
     7
 10
11.6388
 20
3.38889
 30
0.0
 11
11.7862
 21
3.42111
 31
0.0
  0
LINE
  8
0
 62
     7
 10
11.7862
 20
3.42111
 30
0.0
 11
11.9508
 21
3.43181
 31
0.0
  0
LINE
  8
0
 62
     7
 10
11.9508
 20
3.43181
 30
0.0
 11
12.1909
 21
3.40944
 31
0.0
  0
LINE
  8
0
 62
     7
 10
12.1909
 20
3.40944
 30
0.0
 11
12.3583
 21
4.20264
 31
0.0
  0
LINE
  8
0
 62
     7
 10
12.3583
 20
4.20264
 30
0.0
 11
12.2635
 21
4.20811
 31
0.0
  0
LINE
  8
0
 62
     7
 10
12.2635
 20
4.20811
 30
0.0
 11
11.9982
 21
4.16629
 31
0.0
  0
LINE
  8
0
 62
     7
 10
11.9982
 20
4.16629
 30
0.0
 11
11.7386
 21
4.04064
 31
0.0
  0
LINE
  8
0
 62
     7
 10
11.7386
 20
4.04064
 30
0.0
 11
11.4971
 21
3.83822
 31
0.0
  0
LINE
  8
0
 62
     7
 10
11.4971
 20
3.83822
 30
0.0
 11
11.2863
 21
3.56592
 31
0.0
  0
LINE
  8
0
 62
     7
 10
11.2863
 20
3.56592
 30
0.0
 11
11.4148
 21
4.15782
 31
0.0
  0
LINE
  8
0
 62
     7
 10
11.4148
 20
4.15782
 30
0.0
 11
10.6331
 21
4.15782
 31
0.0
  0
LINE
  8
0
 62
     7
 10
10.6331
 20
4.15782
 30
0.0
 11
9.991
 21
1.14214
 31
0.0
  0
LINE
  8
0
 62
     7
 10
12.6692
 20
4.15782
 30
0.0
 11
12.0271
 21
1.14214
 31
0.0
  0
LINE
  8
0
 62
     7
 10
12.0271
 20
1.14214
 30
0.0
 11
12.8088
 21
1.14214
 31
0.0
  0
LINE
  8
0
 62
     7
 10
12.8088
 20
1.14214
 30
0.0
 11
13.4509
 21
4.15782
 31
0.0
  0
LINE
  8
0
 62
     7
 10
13.4509
 20
4.15782
 30
0.0
 11
12.6692
 21
4.15782
 31
0.0
  0
LINE
  8
0
 62
     7
 10
12.8926
 20
5.21338
 30
0.0
 11
12.7418
 21
4.51525
 31
0.0
  0
LINE
  8
0
 62
     7
 10
12.7418
 20
4.51525
 30
0.0
 11
13.5234
 21
4.51525
 31
0.0
  0
LINE
  8
0
 62
     7
 10
13.5234
 20
4.51525
 30
0.0
 11
13.6742
 21
5.21338
 31
0.0
  0
LINE
  8
0
 62
     7
 10
13.6742
 20
5.21338
 30
0.0
 11
12.8926
 21
5.21338
 31
0.0
  0
LINE
  8
0
 62
     7
 10
16.1563
 20
1.14214
 30
0.0
 11
17.0217
 21
5.21338
 31
0.0
  0
LINE
  8
0
 62
     7
 10
17.0217
 20
5.21338
 30
0.0
 11
16.24
 21
5.21338
 31
0.0
  0
LINE
  8
0
 62
     7
 10
16.24
 20
5.21338
 30
0.0
 11
15.9329
 21
3.76693
 31
0.0
  0
LINE
  8
0
 62
     7
 10
15.9329
 20
3.76693
 30
0.0
 11
15.8153
 21
3.95996
 31
0.0
  0
LINE
  8
0
 62
     7
 10
15.8153
 20
3.95996
 30
0.0
 11
15.6522
 21
4.09782
 31
0.0
  0
LINE
  8
0
 62
     7
 10
15.6522
 20
4.09782
 30
0.0
 11
15.4439
 21
4.18056
 31
0.0
  0
LINE
  8
0
 62
     7
 10
15.4439
 20
4.18056
 30
0.0
 11
15.1903
 21
4.20811
 31
0.0
  0
LINE
  8
0
 62
     7
 10
15.1903
 20
4.20811
 30
0.0
 11
14.8546
 21
4.16276
 31
0.0
  0
LINE
  8
0
 62
     7
 10
14.8546
 20
4.16276
 30
0.0
 11
14.5287
 21
4.02658
 31
0.0
  0
LINE
  8
0
 62
     7
 10
14.5287
 20
4.02658
 30
0.0
 11
14.3746
 21
3.92768
 31
0.0
  0
LINE
  8
0
 62
     7
 10
14.3746
 20
3.92768
 30
0.0
 11
14.2333
 21
3.81233
 31
0.0
  0
LINE
  8
0
 62
     7
 10
14.2333
 20
3.81233
 30
0.0
 11
14.1051
 21
3.68061
 31
0.0
  0
LINE
  8
0
 62
     7
 10
14.1051
 20
3.68061
 30
0.0
 11
13.9899
 21
3.53244
 31
0.0
  0
LINE
  8
0
 62
     7
 10
13.9899
 20
3.53244
 30
0.0
 11
13.7993
 21
3.21099
 31
0.0
  0
LINE
  8
0
 62
     7
 10
13.7993
 20
3.21099
 30
0.0
 11
13.6633
 21
2.87761
 31
0.0
  0
LINE
  8
0
 62
     7
 10
13.6633
 20
2.87761
 30
0.0
 11
13.5815
 21
2.53233
 31
0.0
  0
LINE
  8
0
 62
     7
 10
13.5815
 20
2.53233
 30
0.0
 11
13.5544
 21
2.17524
 31
0.0
  0
LINE
  8
0
 62
     7
 10
13.5544
 20
2.17524
 30
0.0
 11
13.5708
 21
1.92578
 31
0.0
  0
LINE
  8
0
 62
     7
 10
13.5708
 20
1.92578
 30
0.0
 11
13.6199
 21
1.70204
 31
0.0
  0
LINE
  8
0
 62
     7
 10
13.6199
 20
1.70204
 30
0.0
 11
13.7019
 21
1.50412
 31
0.0
  0
LINE
  8
0
 62
     7
 10
13.7019
 20
1.50412
 30
0.0
 11
13.8168
 21
1.33203
 31
0.0
  0
LINE
  8
0
 62
     7
 10
13.8168
 20
1.33203
 30
0.0
 11
13.9588
 21
1.19282
 31
0.0
  0
LINE
  8
0
 62
     7
 10
13.9588
 20
1.19282
 30
0.0
 11
14.1224
 21
1.09332
 31
0.0
  0
LINE
  8
0
 62
     7
 10
14.1224
 20
1.09332
 30
0.0
 11
14.3078
 21
1.03358
 31
0.0
  0
LINE
  8
0
 62
     7
 10
14.3078
 20
1.03358
 30
0.0
 11
14.5146
 21
1.01367
 31
0.0
  0
LINE
  8
0
 62
     7
 10
14.5146
 20
1.01367
 30
0.0
 11
14.7778
 21
1.04091
 31
0.0
  0
LINE
  8
0
 62
     7
 10
14.7778
 20
1.04091
 30
0.0
 11
15.02
 21
1.12256
 31
0.0
  0
LINE
  8
0
 62
     7
 10
15.02
 20
1.12256
 30
0.0
 11
15.2413
 21
1.25868
 31
0.0
  0
LINE
  8
0
 62
     7
 10
15.2413
 20
1.25868
 30
0.0
 11
15.4415
 21
1.44928
 31
0.0
  0
LINE
  8
0
 62
     7
 10
15.4415
 20
1.44928
 30
0.0
 11
15.3746
 21
1.14214
 31
0.0
  0
LINE
  8
0
 62
     7
 10
15.3746
 20
1.14214
 30
0.0
 11
16.1563
 21
1.14214
 31
0.0
  0
LINE
  8
0
 62
     7
 10
15.5951
 20
3.40944
 30
0.0
 11
15.6525
 21
3.31565
 31
0.0
  0
LINE
  8
0
 62
     7
 10
15.6525
 20
3.31565
 30
0.0
 11
15.6935
 21
3.20708
 31
0.0
  0
LINE
  8
0
 62
     7
 10
15.6935
 20
3.20708
 30
0.0
 11
15.7181
 21
3.08388
 31
0.0
  0
LINE
  8
0
 62
     7
 10
15.7181
 20
3.08388
 30
0.0
 11
15.7264
 21
2.9459
 31
0.0
  0
LINE
  8
0
 62
     7
 10
15.7264
 20
2.9459
 30
0.0
 11
15.7097
 21
2.69189
 31
0.0
  0
LINE
  8
0
 62
     7
 10
15.7097
 20
2.69189
 30
0.0
 11
15.66
 21
2.45454
 31
0.0
  0
LINE
  8
0
 62
     7
 10
15.66
 20
2.45454
 30
0.0
 11
15.5771
 21
2.23394
 31
0.0
  0
LINE
  8
0
 62
     7
 10
15.5771
 20
2.23394
 30
0.0
 11
15.4611
 21
2.03006
 31
0.0
  0
LINE
  8
0
 62
     7
 10
15.4611
 20
2.03006
 30
0.0
 11
15.3226
 21
1.85906
 31
0.0
  0
LINE
  8
0
 62
     7
 10
15.3226
 20
1.85906
 30
0.0
 11
15.1728
 21
1.73693
 31
0.0
  0
LINE
  8
0
 62
     7
 10
15.1728
 20
1.73693
 30
0.0
 11
15.0114
 21
1.66362
 31
0.0
  0
LINE
  8
0
 62
     7
 10
15.0114
 20
1.66362
 30
0.0
 11
14.8386
 21
1.63917
 31
0.0
  0
LINE
  8
0
 62
     7
 10
14.8386
 20
1.63917
 30
0.0
 11
14.7326
 21
1.65017
 31
0.0
  0
LINE
  8
0
 62
     7
 10
14.7326
 20
1.65017
 30
0.0
 11
14.6382
 21
1.68317
 31
0.0
  0
LINE
  8
0
 62
     7
 10
14.6382
 20
1.68317
 30
0.0
 11
14.5553
 21
1.73812
 31
0.0
  0
LINE
  8
0
 62
     7
 10
14.5553
 20
1.73812
 30
0.0
 11
14.484
 21
1.81506
 31
0.0
  0
LINE
  8
0
 62
     7
 10
14.484
 20
1.81506
 30
0.0
 11
14.4265
 21
1.91092
 31
0.0
  0
LINE
  8
0
 62
     7
 10
14.4265
 20
1.91092
 30
0.0
 11
14.3856
 21
2.02246
 31
0.0
  0
LINE
  8
0
 62
     7
 10
14.3856
 20
2.02246
 30
0.0
 11
14.361
 21
2.14968
 31
0.0
  0
LINE
  8
0
 62
     7
 10
14.361
 20
2.14968
 30
0.0
 11
14.3528
 21
2.29258
 31
0.0
  0
LINE
  8
0
 62
     7
 10
14.3528
 20
2.29258
 30
0.0
 11
14.3696
 21
2.53939
 31
0.0
  0
LINE
  8
0
 62
     7
 10
14.3696
 20
2.53939
 30
0.0
 11
14.4197
 21
2.77149
 31
0.0
  0
LINE
  8
0
 62
     7
 10
14.4197
 20
2.77149
 30
0.0
 11
14.5035
 21
2.98893
 31
0.0
  0
LINE
  8
0
 62
     7
 10
14.5035
 20
2.98893
 30
0.0
 11
14.6208
 21
3.19168
 31
0.0
  0
LINE
  8
0
 62
     7
 10
14.6208
 20
3.19168
 30
0.0
 11
14.7597
 21
3.36274
 31
0.0
  0
LINE
  8
0
 62
     7
 10
14.7597
 20
3.36274
 30
0.0
 11
14.9083
 21
3.48492
 31
0.0
  0
LINE
  8
0
 62
     7
 10
14.9083
 20
3.48492
 30
0.0
 11
15.0668
 21
3.55817
 31
0.0
  0
LINE
  8
0
 62
     7
 10
15.0668
 20
3.55817
 30
0.0
 11
15.235
 21
3.58257
 31
0.0
  0
LINE
  8
0
 62
     7
 10
15.235
 20
3.58257
 30
0.0
 11
15.3433
 21
3.57178
 31
0.0
  0
LINE
  8
0
 62
     7
 10
15.3433
 20
3.57178
 30
0.0
 11
15.4394
 21
3.53933
 31
0.0
  0
LINE
  8
0
 62
     7
 10
15.4394
 20
3.53933
 30
0.0
 11
15.5233
 21
3.48525
 31
0.0
  0
LINE
  8
0
 62
     7
 10
15.5233
 20
3.48525
 30
0.0
 11
15.5951
 21
3.40944
 31
0.0
  0
LINE
  8
0
 62
     7
 10
17.9013
 20
4.09082
 30
0.0
 11
17.6374
 21
3.95404
 31
0.0
  0
LINE
  8
0
 62
     7
 10
17.6374
 20
3.95404
 30
0.0
 11
17.4267
 21
3.77815
 31
0.0
  0
LINE
  8
0
 62
     7
 10
17.4267
 20
3.77815
 30
0.0
 11
17.2557
 21
3.57639
 31
0.0
  0
LINE
  8
0
 62
     7
 10
17.2557
 20
3.57639
 30
0.0
 11
17.1113
 21
3.36203
 31
0.0
  0
LINE
  8
0
 62
     7
 10
17.1113
 20
3.36203
 30
0.0
 11
16.996
 21
3.1359
 31
0.0
  0
LINE
  8
0
 62
     7
 10
16.996
 20
3.1359
 30
0.0
 11
16.9131
 21
2.89849
 31
0.0
  0
LINE
  8
0
 62
     7
 10
16.9131
 20
2.89849
 30
0.0
 11
16.8557
 21
2.67307
 31
0.0
  0
LINE
  8
0
 62
     7
 10
16.8557
 20
2.67307
 30
0.0
 11
16.8181
 21
2.48247
 31
0.0
  0
LINE
  8
0
 62
     7
 10
16.8181
 20
2.48247
 30
0.0
 11
16.7971
 21
2.31913
 31
0.0
  0
LINE
  8
0
 62
     7
 10
16.7971
 20
2.31913
 30
0.0
 11
16.7901
 21
2.17524
 31
0.0
  0
LINE
  8
0
 62
     7
 10
16.7901
 20
2.17524
 30
0.0
 11
16.8106
 21
1.928
 31
0.0
  0
LINE
  8
0
 62
     7
 10
16.8106
 20
1.928
 30
0.0
 11
16.8718
 21
1.70546
 31
0.0
  0
LINE
  8
0
 62
     7
 10
16.8718
 20
1.70546
 30
0.0
 11
16.9739
 21
1.50776
 31
0.0
  0
LINE
  8
0
 62
     7
 10
16.9739
 20
1.50776
 30
0.0
 11
17.1168
 21
1.3348
 31
0.0
  0
LINE
  8
0
 62
     7
 10
17.1168
 20
1.3348
 30
0.0
 11
17.2925
 21
1.19434
 31
0.0
  0
LINE
  8
0
 62
     7
 10
17.2925
 20
1.19434
 30
0.0
 11
17.4929
 21
1.09397
 31
0.0
  0
LINE
  8
0
 62
     7
 10
17.4929
 20
1.09397
 30
0.0
 11
17.7182
 21
1.03375
 31
0.0
  0
LINE
  8
0
 62
     7
 10
17.7182
 20
1.03375
 30
0.0
 11
17.9682
 21
1.01367
 31
0.0
  0
LINE
  8
0
 62
     7
 10
17.9682
 20
1.01367
 30
0.0
 11
18.2158
 21
1.02973
 31
0.0
  0
LINE
  8
0
 62
     7
 10
18.2158
 20
1.02973
 30
0.0
 11
18.4504
 21
1.07791
 31
0.0
  0
LINE
  8
0
 62
     7
 10
18.4504
 20
1.07791
 30
0.0
 11
18.6722
 21
1.15815
 31
0.0
  0
LINE
  8
0
 62
     7
 10
18.6722
 20
1.15815
 30
0.0
 11
18.8811
 21
1.27056
 31
0.0
  0
LINE
  8
0
 62
     7
 10
18.8811
 20
1.27056
 30
0.0
 11
19.0725
 21
1.41194
 31
0.0
  0
LINE
  8
0
 62
     7
 10
19.0725
 20
1.41194
 30
0.0
 11
19.2419
 21
1.5791
 31
0.0
  0
LINE
  8
0
 62
     7
 10
19.2419
 20
1.5791
 30
0.0
 11
19.3894
 21
1.77214
 31
0.0
  0
LINE
  8
0
 62
     7
 10
19.3894
 20
1.77214
 30
0.0
 11
19.5149
 21
1.99104
 31
0.0
  0
LINE
  8
0
 62
     7
 10
19.5149
 20
1.99104
 30
0.0
 11
18.7443
 21
1.99104
 31
0.0
  0
LINE
  8
0
 62
     7
 10
18.7443
 20
1.99104
 30
0.0
 11
18.6389
 21
1.84581
 31
0.0
  0
LINE
  8
0
 62
     7
 10
18.6389
 20
1.84581
 30
0.0
 11
18.4903
 21
1.73406
 31
0.0
  0
LINE
  8
0
 62
     7
 10
18.4903
 20
1.73406
 30
0.0
 11
18.3124
 21
1.66292
 31
0.0
  0
LINE
  8
0
 62
     7
 10
18.3124
 20
1.66292
 30
0.0
 11
18.119
 21
1.63917
 31
0.0
  0
LINE
  8
0
 62
     7
 10
18.119
 20
1.63917
 30
0.0
 11
18.0049
 21
1.64806
 31
0.0
  0
LINE
  8
0
 62
     7
 10
18.0049
 20
1.64806
 30
0.0
 11
17.9026
 21
1.67475
 31
0.0
  0
LINE
  8
0
 62
     7
 10
17.9026
 20
1.67475
 30
0.0
 11
17.8122
 21
1.71929
 31
0.0
  0
LINE
  8
0
 62
     7
 10
17.8122
 20
1.71929
 30
0.0
 11
17.7337
 21
1.78157
 31
0.0
  0
LINE
  8
0
 62
     7
 10
17.7337
 20
1.78157
 30
0.0
 11
17.6703
 21
1.85818
 31
0.0
  0
LINE
  8
0
 62
     7
 10
17.6703
 20
1.85818
 30
0.0
 11
17.6249
 21
1.94564
 31
0.0
  0
LINE
  8
0
 62
     7
 10
17.6249
 20
1.94564
 30
0.0
 11
17.5976
 21
2.04389
 31
0.0
  0
LINE
  8
0
 62
     7
 10
17.5976
 20
2.04389
 30
0.0
 11
17.5886
 21
2.15294
 31
0.0
  0
LINE
  8
0
 62
     7
 10
17.5886
 20
2.15294
 30
0.0
 11
17.5928
 21
2.26329
 31
0.0
  0
LINE
  8
0
 62
     7
 10
17.5928
 20
2.26329
 30
0.0
 11
17.6054
 21
2.40424
 31
0.0
  0
LINE
  8
0
 62
     7
 10
17.6054
 20
2.40424
 30
0.0
 11
19.6321
 21
2.40424
 31
0.0
  0
LINE
  8
0
 62
     7
 10
19.6321
 20
2.40424
 30
0.0
 11
19.7075
 21
2.76872
 31
0.0
  0
LINE
  8
0
 62
     7
 10
19.7075
 20
2.76872
 30
0.0
 11
19.7326
 21
3.10238
 31
0.0
  0
LINE
  8
0
 62
     7
 10
19.7326
 20
3.10238
 30
0.0
 11
19.7122
 21
3.33664
 31
0.0
  0
LINE
  8
0
 62
     7
 10
19.7122
 20
3.33664
 30
0.0
 11
19.651
 21
3.54775
 31
0.0
  0
LINE
  8
0
 62
     7
 10
19.651
 20
3.54775
 30
0.0
 11
19.5489
 21
3.73583
 31
0.0
  0
LINE
  8
0
 62
     7
 10
19.5489
 20
3.73583
 30
0.0
 11
19.406
 21
3.90093
 31
0.0
  0
LINE
  8
0
 62
     7
 10
19.406
 20
3.90093
 30
0.0
 11
19.2299
 21
4.03532
 31
0.0
  0
LINE
  8
0
 62
     7
 10
19.2299
 20
4.03532
 30
0.0
 11
19.0283
 21
4.13135
 31
0.0
  0
LINE
  8
0
 62
     7
 10
19.0283
 20
4.13135
 30
0.0
 11
18.8014
 21
4.18896
 31
0.0
  0
LINE
  8
0
 62
     7
 10
18.8014
 20
4.18896
 30
0.0
 11
18.5489
 21
4.20811
 31
0.0
  0
LINE
  8
0
 62
     7
 10
18.5489
 20
4.20811
 30
0.0
 11
18.2083
 21
4.17888
 31
0.0
  0
LINE
  8
0
 62
     7
 10
18.2083
 20
4.17888
 30
0.0
 11
17.9013
 21
4.09082
 31
0.0
  0
LINE
  8
0
 62
     7
 10
18.9342
 20
2.92367
 30
0.0
 11
17.7058
 21
2.92367
 31
0.0
  0
LINE
  8
0
 62
     7
 10
17.7058
 20
2.92367
 30
0.0
 11
17.7578
 21
3.07813
 31
0.0
  0
LINE
  8
0
 62
     7
 10
17.7578
 20
3.07813
 30
0.0
 11
17.8217
 21
3.21197
 31
0.0
  0
LINE
  8
0
 62
     7
 10
17.8217
 20
3.21197
 30
0.0
 11
17.8974
 21
3.32525
 31
0.0
  0
LINE
  8
0
 62
     7
 10
17.8974
 20
3.32525
 30
0.0
 11
17.985
 21
3.41786
 31
0.0
  0
LINE
  8
0
 62
     7
 10
17.985
 20
3.41786
 30
0.0
 11
18.0844
 21
3.48996
 31
0.0
  0
LINE
  8
0
 62
     7
 10
18.0844
 20
3.48996
 30
0.0
 11
18.1957
 21
3.54139
 31
0.0
  0
LINE
  8
0
 62
     7
 10
18.1957
 20
3.54139
 30
0.0
 11
18.3189
 21
3.57232
 31
0.0
  0
LINE
  8
0
 62
     7
 10
18.3189
 20
3.57232
 30
0.0
 11
18.454
 21
3.58257
 31
0.0
  0
LINE
  8
0
 62
     7
 10
18.454
 20
3.58257
 30
0.0
 11
18.5665
 21
3.57362
 31
0.0
  0
LINE
  8
0
 62
     7
 10
18.5665
 20
3.57362
 30
0.0
 11
18.664
 21
3.54665
 31
0.0
  0
LINE
  8
0
 62
     7
 10
18.664
 20
3.54665
 30
0.0
 11
18.7465
 21
3.50174
 31
0.0
  0
LINE
  8
0
 62
     7
 10
18.7465
 20
3.50174
 30
0.0
 11
18.814
 21
3.43886
 31
0.0
  0
LINE
  8
0
 62
     7
 10
18.814
 20
3.43886
 30
0.0
 11
18.8665
 21
3.35796
 31
0.0
  0
LINE
  8
0
 62
     7
 10
18.8665
 20
3.35796
 30
0.0
 11
18.9042
 21
3.25911
 31
0.0
  0
LINE
  8
0
 62
     7
 10
18.9042
 20
3.25911
 30
0.0
 11
18.9265
 21
3.14231
 31
0.0
  0
LINE
  8
0
 62
     7
 10
18.9265
 20
3.14231
 30
0.0
 11
18.9342
 21
3.00749
 31
0.0
  0
LINE
  8
0
 62
     7
 10
18.9342
 20
3.00749
 30
0.0
 11
18.9342
 21
2.92367
 31
0.0
  0
LINE
  8
0
 62
     7
 10
19.7969
 20
1.14214
 30
0.0
 11
20.5786
 21
1.14214
 31
0.0
  0
LINE
  8
0
 62
     7
 10
20.5786
 20
1.14214
 30
0.0
 11
20.9415
 21
2.83979
 31
0.0
  0
LINE
  8
0
 62
     7
 10
20.9415
 20
2.83979
 30
0.0
 11
20.9885
 21
3.00375
 31
0.0
  0
LINE
  8
0
 62
     7
 10
20.9885
 20
3.00375
 30
0.0
 11
21.0511
 21
3.14914
 31
0.0
  0
LINE
  8
0
 62
     7
 10
21.0511
 20
3.14914
 30
0.0
 11
21.1294
 21
3.27604
 31
0.0
  0
LINE
  8
0
 62
     7
 10
21.1294
 20
3.27604
 30
0.0
 11
21.2236
 21
3.38439
 31
0.0
  0
LINE
  8
0
 62
     7
 10
21.2236
 20
3.38439
 30
0.0
 11
21.3301
 21
3.47114
 31
0.0
  0
LINE
  8
0
 62
     7
 10
21.3301
 20
3.47114
 30
0.0
 11
21.4461
 21
3.5331
 31
0.0
  0
LINE
  8
0
 62
     7
 10
21.4461
 20
3.5331
 30
0.0
 11
21.5715
 21
3.57021
 31
0.0
  0
LINE
  8
0
 62
     7
 10
21.5715
 20
3.57021
 30
0.0
 11
21.7064
 21
3.58257
 31
0.0
  0
LINE
  8
0
 62
     7
 10
21.7064
 20
3.58257
 30
0.0
 11
21.8872
 21
3.55642
 31
0.0
  0
LINE
  8
0
 62
     7
 10
21.8872
 20
3.55642
 30
0.0
 11
22.0164
 21
3.47792
 31
0.0
  0
LINE
  8
0
 62
     7
 10
22.0164
 20
3.47792
 30
0.0
 11
22.0939
 21
3.34706
 31
0.0
  0
LINE
  8
0
 62
     7
 10
22.0939
 20
3.34706
 30
0.0
 11
22.1197
 21
3.16385
 31
0.0
  0
LINE
  8
0
 62
     7
 10
22.1197
 20
3.16385
 30
0.0
 11
22.1114
 21
3.05078
 31
0.0
  0
LINE
  8
0
 62
     7
 10
22.1114
 20
3.05078
 30
0.0
 11
22.0862
 21
2.89014
 31
0.0
  0
LINE
  8
0
 62
     7
 10
22.0862
 20
2.89014
 30
0.0
 11
21.7121
 21
1.14214
 31
0.0
  0
LINE
  8
0
 62
     7
 10
21.7121
 20
1.14214
 30
0.0
 11
22.4938
 21
1.14214
 31
0.0
  0
LINE
  8
0
 62
     7
 10
22.4938
 20
1.14214
 30
0.0
 11
22.9236
 21
3.16385
 31
0.0
  0
LINE
  8
0
 62
     7
 10
22.9236
 20
3.16385
 30
0.0
 11
22.9572
 21
3.47092
 31
0.0
  0
LINE
  8
0
 62
     7
 10
22.9572
 20
3.47092
 30
0.0
 11
22.9432
 21
3.63015
 31
0.0
  0
LINE
  8
0
 62
     7
 10
22.9432
 20
3.63015
 30
0.0
 11
22.9014
 21
3.77257
 31
0.0
  0
LINE
  8
0
 62
     7
 10
22.9014
 20
3.77257
 30
0.0
 11
22.8315
 21
3.89822
 31
0.0
  0
LINE
  8
0
 62
     7
 10
22.8315
 20
3.89822
 30
0.0
 11
22.7339
 21
4.00706
 31
0.0
  0
LINE
  8
0
 62
     7
 10
22.7339
 20
4.00706
 30
0.0
 11
22.6128
 21
4.09506
 31
0.0
  0
LINE
  8
0
 62
     7
 10
22.6128
 20
4.09506
 30
0.0
 11
22.4728
 21
4.15788
 31
0.0
  0
LINE
  8
0
 62
     7
 10
22.4728
 20
4.15788
 30
0.0
 11
22.314
 21
4.19558
 31
0.0
  0
LINE
  8
0
 62
     7
 10
22.314
 20
4.19558
 30
0.0
 11
22.1364
 21
4.20811
 31
0.0
  0
LINE
  8
0
 62
     7
 10
22.1364
 20
4.20811
 30
0.0
 11
21.8419
 21
4.17811
 31
0.0
  0
LINE
  8
0
 62
     7
 10
21.8419
 20
4.17811
 30
0.0
 11
21.5836
 21
4.08806
 31
0.0
  0
LINE
  8
0
 62
     7
 10
21.5836
 20
4.08806
 30
0.0
 11
21.3478
 21
3.93099
 31
0.0
  0
LINE
  8
0
 62
     7
 10
21.3478
 20
3.93099
 30
0.0
 11
21.1203
 21
3.69993
 31
0.0
  0
LINE
  8
0
 62
     7
 10
21.1203
 20
3.69993
 30
0.0
 11
21.2208
 21
4.15782
 31
0.0
  0
LINE
  8
0
 62
     7
 10
21.2208
 20
4.15782
 30
0.0
 11
20.439
 21
4.15782
 31
0.0
  0
LINE
  8
0
 62
     7
 10
20.439
 20
4.15782
 30
0.0
 11
19.7969
 21
1.14214
 31
0.0
  0
LINE
  8
0
 62
     7
 10
24.6408
 20
4.09646
 30
0.0
 11
24.8139
 21
4.90631
 31
0.0
  0
LINE
  8
0
 62
     7
 10
24.8139
 20
4.90631
 30
0.0
 11
24.0322
 21
4.90631
 31
0.0
  0
LINE
  8
0
 62
     7
 10
24.0322
 20
4.90631
 30
0.0
 11
23.8592
 21
4.09646
 31
0.0
  0
LINE
  8
0
 62
     7
 10
23.8592
 20
4.09646
 30
0.0
 11
23.4739
 21
4.09646
 31
0.0
  0
LINE
  8
0
 62
     7
 10
23.4739
 20
4.09646
 30
0.0
 11
23.3622
 21
3.5771
 31
0.0
  0
LINE
  8
0
 62
     7
 10
23.3622
 20
3.5771
 30
0.0
 11
23.7475
 21
3.5771
 31
0.0
  0
LINE
  8
0
 62
     7
 10
23.7475
 20
3.5771
 30
0.0
 11
23.3565
 21
1.72293
 31
0.0
  0
LINE
  8
0
 62
     7
 10
23.3565
 20
1.72293
 30
0.0
 11
23.3356
 21
1.60146
 31
0.0
  0
LINE
  8
0
 62
     7
 10
23.3356
 20
1.60146
 30
0.0
 11
23.3286
 21
1.49392
 31
0.0
  0
LINE
  8
0
 62
     7
 10
23.3286
 20
1.49392
 30
0.0
 11
23.3388
 21
1.38591
 31
0.0
  0
LINE
  8
0
 62
     7
 10
23.3388
 20
1.38591
 30
0.0
 11
23.3692
 21
1.29085
 31
0.0
  0
LINE
  8
0
 62
     7
 10
23.3692
 20
1.29085
 30
0.0
 11
23.4197
 21
1.20866
 31
0.0
  0
LINE
  8
0
 62
     7
 10
23.4197
 20
1.20866
 30
0.0
 11
23.4906
 21
1.13938
 31
0.0
  0
LINE
  8
0
 62
     7
 10
23.4906
 20
1.13938
 30
0.0
 11
23.5806
 21
1.08447
 31
0.0
  0
LINE
  8
0
 62
     7
 10
23.5806
 20
1.08447
 30
0.0
 11
23.6887
 21
1.04514
 31
0.0
  0
LINE
  8
0
 62
     7
 10
23.6887
 20
1.04514
 30
0.0
 11
23.8151
 21
1.02159
 31
0.0
  0
LINE
  8
0
 62
     7
 10
23.8151
 20
1.02159
 30
0.0
 11
23.9596
 21
1.01367
 31
0.0
  0
LINE
  8
0
 62
     7
 10
23.9596
 20
1.01367
 30
0.0
 11
24.2067
 21
1.02908
 31
0.0
  0
LINE
  8
0
 62
     7
 10
24.2067
 20
1.02908
 30
0.0
 11
24.4343
 21
1.07503
 31
0.0
  0
LINE
  8
0
 62
     7
 10
24.4343
 20
1.07503
 30
0.0
 11
24.5458
 21
1.62235
 31
0.0
  0
LINE
  8
0
 62
     7
 10
24.5458
 20
1.62235
 30
0.0
 11
24.4413
 21
1.60981
 31
0.0
  0
LINE
  8
0
 62
     7
 10
24.4413
 20
1.60981
 30
0.0
 11
24.3615
 21
1.60558
 31
0.0
  0
LINE
  8
0
 62
     7
 10
24.3615
 20
1.60558
 30
0.0
 11
24.2687
 21
1.61431
 31
0.0
  0
LINE
  8
0
 62
     7
 10
24.2687
 20
1.61431
 30
0.0
 11
24.2024
 21
1.64051
 31
0.0
  0
LINE
  8
0
 62
     7
 10
24.2024
 20
1.64051
 30
0.0
 11
24.1626
 21
1.68414
 31
0.0
  0
LINE
  8
0
 62
     7
 10
24.1626
 20
1.68414
 30
0.0
 11
24.1494
 21
1.74522
 31
0.0
  0
LINE
  8
0
 62
     7
 10
24.1494
 20
1.74522
 30
0.0
 11
24.1515
 21
1.77388
 31
0.0
  0
LINE
  8
0
 62
     7
 10
24.1515
 20
1.77388
 30
0.0
 11
24.1578
 21
1.81511
 31
0.0
  0
LINE
  8
0
 62
     7
 10
24.1578
 20
1.81511
 30
0.0
 11
24.1682
 21
1.86888
 31
0.0
  0
LINE
  8
0
 62
     7
 10
24.1682
 20
1.86888
 30
0.0
 11
24.1829
 21
1.93522
 31
0.0
  0
LINE
  8
0
 62
     7
 10
24.1829
 20
1.93522
 30
0.0
 11
24.5292
 21
3.5771
 31
0.0
  0
LINE
  8
0
 62
     7
 10
24.5292
 20
3.5771
 30
0.0
 11
24.9647
 21
3.5771
 31
0.0
  0
LINE
  8
0
 62
     7
 10
24.9647
 20
3.5771
 30
0.0
 11
25.0764
 21
4.09646
 31
0.0
  0
LINE
  8
0
 62
     7
 10
25.0764
 20
4.09646
 30
0.0
 11
24.6408
 21
4.09646
 31
0.0
  0
LINE
  8
0
 62
     7
 10
10.7981
 20
4.51525
 30
0.0
 11
10.9489
 21
5.21338
 31
0.0
  0
LINE
  8
0
 62
     7
 10
10.9489
 20
5.21338
 30
0.0
 11
7.6881
 21
5.21338
 31
0.0
  0
LINE
  8
0
 62
     7
 10
7.6881
 20
5.21338
 30
0.0
 11
7.53733
 21
4.51525
 31
0.0
  0
LINE
  8
0
 62
     7
 10
7.53733
 20
4.51525
 30
0.0
 11
8.77692
 21
4.51525
 31
0.0
  0
LINE
  8
0
 62
     7
 10
8.77692
 20
4.51525
 30
0.0
 11
8.05658
 21
1.14214
 31
0.0
  0
LINE
  8
0
 62
     7
 10
8.05658
 20
1.14214
 30
0.0
 11
8.8941
 21
1.14214
 31
0.0
  0
LINE
  8
0
 62
     7
 10
8.8941
 20
1.14214
 30
0.0
 11
9.61447
 21
4.51525
 31
0.0
  0
LINE
  8
0
 62
     7
 10
9.61447
 20
4.51525
 30
0.0
 11
10.7981
 21
4.51525
 31
0.0
  0
LINE
  8
0
 62
     7
 10
9.991
 20
1.14214
 30
0.0
 11
10.7727
 21
1.14214
 31
0.0
  0
LINE
  8
0
 62
     7
 10
10.7727
 20
1.14214
 30
0.0
 11
11.1132
 21
2.7449
 31
0.0
  0
LINE
  8
0
 62
     7
 10
11.1132
 20
2.7449
 30
0.0
 11
11.158
 21
2.90593
 31
0.0
  0
LINE
  8
0
 62
     7
 10
11.158
 20
2.90593
 30
0.0
 11
11.22
 21
3.04546
 31
0.0
  0
LINE
  8
0
 62
     7
 10
11.22
 20
3.04546
 30
0.0
 11
11.299
 21
3.16357
 31
0.0
  0
LINE
  8
0
 62
     7
 10
11.299
 20
3.16357
 30
0.0
 11
11.3952
 21
3.26014
 31
0.0
  0
LINE
  8
0
 62
     7
 10
11.3952
 20
3.26014
 30
0.0
 11
11.5084
 21
3.33529
 31
0.0
  0
LINE
  8
0
 62
     7
 10
11.5084
 20
3.33529
 30
0.0
 11
11.6388
 21
3.38894
 31
0.0
  0
LINE
  8
0
 62
     7
 10
11.6388
 20
3.38894
 30
0.0
 11
11.7862
 21
3.42117
 31
0.0
  0
LINE
  8
0
 62
     7
 10
11.7862
 20
3.42117
 30
0.0
 11
11.9508
 21
3.43186
 31
0.0
  0
LINE
  8
0
 62
     7
 10
11.9508
 20
3.43186
 30
0.0
 11
12.1909
 21
3.40944
 31
0.0
  0
LINE
  8
0
 62
     7
 10
12.1909
 20
3.40944
 30
0.0
 11
12.3583
 21
4.20264
 31
0.0
  0
LINE
  8
0
 62
     7
 10
12.3583
 20
4.20264
 30
0.0
 11
12.2635
 21
4.20811
 31
0.0
  0
LINE
  8
0
 62
     7
 10
12.2635
 20
4.20811
 30
0.0
 11
11.9982
 21
4.16629
 31
0.0
  0
LINE
  8
0
 62
     7
 10
11.9982
 20
4.16629
 30
0.0
 11
11.7386
 21
4.04064
 31
0.0
  0
LINE
  8
0
 62
     7
 10
11.7386
 20
4.04064
 30
0.0
 11
11.4971
 21
3.83822
 31
0.0
  0
LINE
  8
0
 62
     7
 10
11.4971
 20
3.83822
 30
0.0
 11
11.2863
 21
3.56592
 31
0.0
  0
LINE
  8
0
 62
     7
 10
11.2863
 20
3.56592
 30
0.0
 11
11.4148
 21
4.15782
 31
0.0
  0
LINE
  8
0
 62
     7
 10
11.4148
 20
4.15782
 30
0.0
 11
10.6331
 21
4.15782
 31
0.0
  0
LINE
  8
0
 62
     7
 10
10.6331
 20
4.15782
 30
0.0
 11
9.991
 21
1.14214
 31
0.0
  0
LINE
  8
0
 62
     7
 10
12.6692
 20
4.15782
 30
0.0
 11
12.0271
 21
1.14214
 31
0.0
  0
LINE
  8
0
 62
     7
 10
12.0271
 20
1.14214
 30
0.0
 11
12.8088
 21
1.14214
 31
0.0
  0
LINE
  8
0
 62
     7
 10
12.8088
 20
1.14214
 30
0.0
 11
13.4509
 21
4.15782
 31
0.0
  0
LINE
  8
0
 62
     7
 10
13.4509
 20
4.15782
 30
0.0
 11
12.6692
 21
4.15782
 31
0.0
  0
LINE
  8
0
 62
     7
 10
12.8926
 20
5.21338
 30
0.0
 11
12.7418
 21
4.51525
 31
0.0
  0
LINE
  8
0
 62
     7
 10
12.7418
 20
4.51525
 30
0.0
 11
13.5234
 21
4.51525
 31
0.0
  0
LINE
  8
0
 62
     7
 10
13.5234
 20
4.51525
 30
0.0
 11
13.6742
 21
5.21338
 31
0.0
  0
LINE
  8
0
 62
     7
 10
13.6742
 20
5.21338
 30
0.0
 11
12.8926
 21
5.21338
 31
0.0
  0
LINE
  8
0
 62
     7
 10
16.1563
 20
1.14214
 30
0.0
 11
17.0217
 21
5.21338
 31
0.0
  0
LINE
  8
0
 62
     7
 10
17.0217
 20
5.21338
 30
0.0
 11
16.24
 21
5.21338
 31
0.0
  0
LINE
  8
0
 62
     7
 10
16.24
 20
5.21338
 30
0.0
 11
15.9329
 21
3.76693
 31
0.0
  0
LINE
  8
0
 62
     7
 10
15.9329
 20
3.76693
 30
0.0
 11
15.8153
 21
3.95996
 31
0.0
  0
LINE
  8
0
 62
     7
 10
15.8153
 20
3.95996
 30
0.0
 11
15.6522
 21
4.09782
 31
0.0
  0
LINE
  8
0
 62
     7
 10
15.6522
 20
4.09782
 30
0.0
 11
15.4439
 21
4.18056
 31
0.0
  0
LINE
  8
0
 62
     7
 10
15.4439
 20
4.18056
 30
0.0
 11
15.1903
 21
4.20811
 31
0.0
  0
LINE
  8
0
 62
     7
 10
15.1903
 20
4.20811
 30
0.0
 11
14.8546
 21
4.16276
 31
0.0
  0
LINE
  8
0
 62
     7
 10
14.8546
 20
4.16276
 30
0.0
 11
14.5287
 21
4.02658
 31
0.0
  0
LINE
  8
0
 62
     7
 10
14.5287
 20
4.02658
 30
0.0
 11
14.3746
 21
3.92768
 31
0.0
  0
LINE
  8
0
 62
     7
 10
14.3746
 20
3.92768
 30
0.0
 11
14.2333
 21
3.81233
 31
0.0
  0
LINE
  8
0
 62
     7
 10
14.2333
 20
3.81233
 30
0.0
 11
14.1051
 21
3.68061
 31
0.0
  0
LINE
  8
0
 62
     7
 10
14.1051
 20
3.68061
 30
0.0
 11
13.9899
 21
3.53239
 31
0.0
  0
LINE
  8
0
 62
     7
 10
13.9899
 20
3.53239
 30
0.0
 11
13.7993
 21
3.21099
 31
0.0
  0
LINE
  8
0
 62
     7
 10
13.7993
 20
3.21099
 30
0.0
 11
13.6633
 21
2.87761
 31
0.0
  0
LINE
  8
0
 62
     7
 10
13.6633
 20
2.87761
 30
0.0
 11
13.5815
 21
2.53233
 31
0.0
  0
LINE
  8
0
 62
     7
 10
13.5815
 20
2.53233
 30
0.0
 11
13.5544
 21
2.17524
 31
0.0
  0
LINE
  8
0
 62
     7
 10
13.5544
 20
2.17524
 30
0.0
 11
13.5708
 21
1.92578
 31
0.0
  0
LINE
  8
0
 62
     7
 10
13.5708
 20
1.92578
 30
0.0
 11
13.6199
 21
1.70204
 31
0.0
  0
LINE
  8
0
 62
     7
 10
13.6199
 20
1.70204
 30
0.0
 11
13.7019
 21
1.50412
 31
0.0
  0
LINE
  8
0
 62
     7
 10
13.7019
 20
1.50412
 30
0.0
 11
13.8168
 21
1.33203
 31
0.0
  0
LINE
  8
0
 62
     7
 10
13.8168
 20
1.33203
 30
0.0
 11
13.9588
 21
1.19282
 31
0.0
  0
LINE
  8
0
 62
     7
 10
13.9588
 20
1.19282
 30
0.0
 11
14.1224
 21
1.09332
 31
0.0
  0
LINE
  8
0
 62
     7
 10
14.1224
 20
1.09332
 30
0.0
 11
14.3078
 21
1.03358
 31
0.0
  0
LINE
  8
0
 62
     7
 10
14.3078
 20
1.03358
 30
0.0
 11
14.5146
 21
1.01367
 31
0.0
  0
LINE
  8
0
 62
     7
 10
14.5146
 20
1.01367
 30
0.0
 11
14.7778
 21
1.04091
 31
0.0
  0
LINE
  8
0
 62
     7
 10
14.7778
 20
1.04091
 30
0.0
 11
15.02
 21
1.12256
 31
0.0
  0
LINE
  8
0
 62
     7
 10
15.02
 20
1.12256
 30
0.0
 11
15.2413
 21
1.25868
 31
0.0
  0
LINE
  8
0
 62
     7
 10
15.2413
 20
1.25868
 30
0.0
 11
15.4415
 21
1.44928
 31
0.0
  0
LINE
  8
0
 62
     7
 10
15.4415
 20
1.44928
 30
0.0
 11
15.3746
 21
1.14214
 31
0.0
  0
LINE
  8
0
 62
     7
 10
15.3746
 20
1.14214
 30
0.0
 11
16.1563
 21
1.14214
 31
0.0
  0
LINE
  8
0
 62
     7
 10
15.5951
 20
3.40944
 30
0.0
 11
15.6525
 21
3.31565
 31
0.0
  0
LINE
  8
0
 62
     7
 10
15.6525
 20
3.31565
 30
0.0
 11
15.6935
 21
3.20708
 31
0.0
  0
LINE
  8
0
 62
     7
 10
15.6935
 20
3.20708
 30
0.0
 11
15.7181
 21
3.08388
 31
0.0
  0
LINE
  8
0
 62
     7
 10
15.7181
 20
3.08388
 30
0.0
 11
15.7264
 21
2.9459
 31
0.0
  0
LINE
  8
0
 62
     7
 10
15.7264
 20
2.9459
 30
0.0
 11
15.7097
 21
2.69189
 31
0.0
  0
LINE
  8
0
 62
     7
 10
15.7097
 20
2.69189
 30
0.0
 11
15.66
 21
2.45454
 31
0.0
  0
LINE
  8
0
 62
     7
 10
15.66
 20
2.45454
 30
0.0
 11
15.5771
 21
2.23394
 31
0.0
  0
LINE
  8
0
 62
     7
 10
15.5771
 20
2.23394
 30
0.0
 11
15.4611
 21
2.03006
 31
0.0
  0
LINE
  8
0
 62
     7
 10
15.4611
 20
2.03006
 30
0.0
 11
15.3226
 21
1.85906
 31
0.0
  0
LINE
  8
0
 62
     7
 10
15.3226
 20
1.85906
 30
0.0
 11
15.1728
 21
1.73693
 31
0.0
  0
LINE
  8
0
 62
     7
 10
15.1728
 20
1.73693
 30
0.0
 11
15.0114
 21
1.66362
 31
0.0
  0
LINE
  8
0
 62
     7
 10
15.0114
 20
1.66362
 30
0.0
 11
14.8386
 21
1.63917
 31
0.0
  0
LINE
  8
0
 62
     7
 10
14.8386
 20
1.63917
 30
0.0
 11
14.7326
 21
1.65017
 31
0.0
  0
LINE
  8
0
 62
     7
 10
14.7326
 20
1.65017
 30
0.0
 11
14.6382
 21
1.68317
 31
0.0
  0
LINE
  8
0
 62
     7
 10
14.6382
 20
1.68317
 30
0.0
 11
14.5553
 21
1.73812
 31
0.0
  0
LINE
  8
0
 62
     7
 10
14.5553
 20
1.73812
 30
0.0
 11
14.484
 21
1.81506
 31
0.0
  0
LINE
  8
0
 62
     7
 10
14.484
 20
1.81506
 30
0.0
 11
14.4265
 21
1.91092
 31
0.0
  0
LINE
  8
0
 62
     7
 10
14.4265
 20
1.91092
 30
0.0
 11
14.3856
 21
2.02246
 31
0.0
  0
LINE
  8
0
 62
     7
 10
14.3856
 20
2.02246
 30
0.0
 11
14.361
 21
2.14968
 31
0.0
  0
LINE
  8
0
 62
     7
 10
14.361
 20
2.14968
 30
0.0
 11
14.3528
 21
2.29258
 31
0.0
  0
LINE
  8
0
 62
     7
 10
14.3528
 20
2.29258
 30
0.0
 11
14.3696
 21
2.53933
 31
0.0
  0
LINE
  8
0
 62
     7
 10
14.3696
 20
2.53933
 30
0.0
 11
14.4197
 21
2.77143
 31
0.0
  0
LINE
  8
0
 62
     7
 10
14.4197
 20
2.77143
 30
0.0
 11
14.5035
 21
2.98888
 31
0.0
  0
LINE
  8
0
 62
     7
 10
14.5035
 20
2.98888
 30
0.0
 11
14.6208
 21
3.19168
 31
0.0
  0
LINE
  8
0
 62
     7
 10
14.6208
 20
3.19168
 30
0.0
 11
14.7597
 21
3.36274
 31
0.0
  0
LINE
  8
0
 62
     7
 10
14.7597
 20
3.36274
 30
0.0
 11
14.9083
 21
3.48492
 31
0.0
  0
LINE
  8
0
 62
     7
 10
14.9083
 20
3.48492
 30
0.0
 11
15.0668
 21
3.55817
 31
0.0
  0
LINE
  8
0
 62
     7
 10
15.0668
 20
3.55817
 30
0.0
 11
15.235
 21
3.58257
 31
0.0
  0
LINE
  8
0
 62
     7
 10
15.235
 20
3.58257
 30
0.0
 11
15.3433
 21
3.57178
 31
0.0
  0
LINE
  8
0
 62
     7
 10
15.3433
 20
3.57178
 30
0.0
 11
15.4394
 21
3.53933
 31
0.0
  0
LINE
  8
0
 62
     7
 10
15.4394
 20
3.53933
 30
0.0
 11
15.5233
 21
3.48525
 31
0.0
  0
LINE
  8
0
 62
     7
 10
15.5233
 20
3.48525
 30
0.0
 11
15.5951
 21
3.40944
 31
0.0
  0
LINE
  8
0
 62
     7
 10
17.9013
 20
4.09082
 30
0.0
 11
17.6374
 21
3.95404
 31
0.0
  0
LINE
  8
0
 62
     7
 10
17.6374
 20
3.95404
 30
0.0
 11
17.4267
 21
3.77815
 31
0.0
  0
LINE
  8
0
 62
     7
 10
17.4267
 20
3.77815
 30
0.0
 11
17.2557
 21
3.57639
 31
0.0
  0
LINE
  8
0
 62
     7
 10
17.2557
 20
3.57639
 30
0.0
 11
17.1113
 21
3.36203
 31
0.0
  0
LINE
  8
0
 62
     7
 10
17.1113
 20
3.36203
 30
0.0
 11
16.996
 21
3.1359
 31
0.0
  0
LINE
  8
0
 62
     7
 10
16.996
 20
3.1359
 30
0.0
 11
16.9131
 21
2.89849
 31
0.0
  0
LINE
  8
0
 62
     7
 10
16.9131
 20
2.89849
 30
0.0
 11
16.8557
 21
2.67307
 31
0.0
  0
LINE
  8
0
 62
     7
 10
16.8557
 20
2.67307
 30
0.0
 11
16.8181
 21
2.48247
 31
0.0
  0
LINE
  8
0
 62
     7
 10
16.8181
 20
2.48247
 30
0.0
 11
16.7971
 21
2.31913
 31
0.0
  0
LINE
  8
0
 62
     7
 10
16.7971
 20
2.31913
 30
0.0
 11
16.7901
 21
2.17524
 31
0.0
  0
LINE
  8
0
 62
     7
 10
16.7901
 20
2.17524
 30
0.0
 11
16.8106
 21
1.928
 31
0.0
  0
LINE
  8
0
 62
     7
 10
16.8106
 20
1.928
 30
0.0
 11
16.8718
 21
1.70546
 31
0.0
  0
LINE
  8
0
 62
     7
 10
16.8718
 20
1.70546
 30
0.0
 11
16.9739
 21
1.50776
 31
0.0
  0
LINE
  8
0
 62
     7
 10
16.9739
 20
1.50776
 30
0.0
 11
17.1168
 21
1.3348
 31
0.0
  0
LINE
  8
0
 62
     7
 10
17.1168
 20
1.3348
 30
0.0
 11
17.2925
 21
1.19434
 31
0.0
  0
LINE
  8
0
 62
     7
 10
17.2925
 20
1.19434
 30
0.0
 11
17.4929
 21
1.09397
 31
0.0
  0
LINE
  8
0
 62
     7
 10
17.4929
 20
1.09397
 30
0.0
 11
17.7182
 21
1.03375
 31
0.0
  0
LINE
  8
0
 62
     7
 10
17.7182
 20
1.03375
 30
0.0
 11
17.9682
 21
1.01367
 31
0.0
  0
LINE
  8
0
 62
     7
 10
17.9682
 20
1.01367
 30
0.0
 11
18.2158
 21
1.02973
 31
0.0
  0
LINE
  8
0
 62
     7
 10
18.2158
 20
1.02973
 30
0.0
 11
18.4504
 21
1.07791
 31
0.0
  0
LINE
  8
0
 62
     7
 10
18.4504
 20
1.07791
 30
0.0
 11
18.6722
 21
1.15815
 31
0.0
  0
LINE
  8
0
 62
     7
 10
18.6722
 20
1.15815
 30
0.0
 11
18.8811
 21
1.27056
 31
0.0
  0
LINE
  8
0
 62
     7
 10
18.8811
 20
1.27056
 30
0.0
 11
19.0725
 21
1.41194
 31
0.0
  0
LINE
  8
0
 62
     7
 10
19.0725
 20
1.41194
 30
0.0
 11
19.2419
 21
1.5791
 31
0.0
  0
LINE
  8
0
 62
     7
 10
19.2419
 20
1.5791
 30
0.0
 11
19.3894
 21
1.77214
 31
0.0
  0
LINE
  8
0
 62
     7
 10
19.3894
 20
1.77214
 30
0.0
 11
19.5149
 21
1.99104
 31
0.0
  0
LINE
  8
0
 62
     7
 10
19.5149
 20
1.99104
 30
0.0
 11
18.7443
 21
1.99104
 31
0.0
  0
LINE
  8
0
 62
     7
 10
18.7443
 20
1.99104
 30
0.0
 11
18.6389
 21
1.84581
 31
0.0
  0
LINE
  8
0
 62
     7
 10
18.6389
 20
1.84581
 30
0.0
 11
18.4903
 21
1.73406
 31
0.0
  0
LINE
  8
0
 62
     7
 10
18.4903
 20
1.73406
 30
0.0
 11
18.3124
 21
1.66292
 31
0.0
  0
LINE
  8
0
 62
     7
 10
18.3124
 20
1.66292
 30
0.0
 11
18.119
 21
1.63917
 31
0.0
  0
LINE
  8
0
 62
     7
 10
18.119
 20
1.63917
 30
0.0
 11
18.0049
 21
1.64806
 31
0.0
  0
LINE
  8
0
 62
     7
 10
18.0049
 20
1.64806
 30
0.0
 11
17.9026
 21
1.67475
 31
0.0
  0
LINE
  8
0
 62
     7
 10
17.9026
 20
1.67475
 30
0.0
 11
17.8122
 21
1.71929
 31
0.0
  0
LINE
  8
0
 62
     7
 10
17.8122
 20
1.71929
 30
0.0
 11
17.7337
 21
1.78157
 31
0.0
  0
LINE
  8
0
 62
     7
 10
17.7337
 20
1.78157
 30
0.0
 11
17.6703
 21
1.85818
 31
0.0
  0
LINE
  8
0
 62
     7
 10
17.6703
 20
1.85818
 30
0.0
 11
17.6249
 21
1.94564
 31
0.0
  0
LINE
  8
0
 62
     7
 10
17.6249
 20
1.94564
 30
0.0
 11
17.5976
 21
2.04389
 31
0.0
  0
LINE
  8
0
 62
     7
 10
17.5976
 20
2.04389
 30
0.0
 11
17.5886
 21
2.15294
 31
0.0
  0
LINE
  8
0
 62
     7
 10
17.5886
 20
2.15294
 30
0.0
 11
17.5928
 21
2.26329
 31
0.0
  0
LINE
  8
0
 62
     7
 10
17.5928
 20
2.26329
 30
0.0
 11
17.6054
 21
2.40424
 31
0.0
  0
LINE
  8
0
 62
     7
 10
17.6054
 20
2.40424
 30
0.0
 11
19.6321
 21
2.40424
 31
0.0
  0
LINE
  8
0
 62
     7
 10
19.6321
 20
2.40424
 30
0.0
 11
19.7075
 21
2.76878
 31
0.0
  0
LINE
  8
0
 62
     7
 10
19.7075
 20
2.76878
 30
0.0
 11
19.7326
 21
3.10238
 31
0.0
  0
LINE
  8
0
 62
     7
 10
19.7326
 20
3.10238
 30
0.0
 11
19.7122
 21
3.33664
 31
0.0
  0
LINE
  8
0
 62
     7
 10
19.7122
 20
3.33664
 30
0.0
 11
19.651
 21
3.54775
 31
0.0
  0
LINE
  8
0
 62
     7
 10
19.651
 20
3.54775
 30
0.0
 11
19.5489
 21
3.73583
 31
0.0
  0
LINE
  8
0
 62
     7
 10
19.5489
 20
3.73583
 30
0.0
 11
19.406
 21
3.90093
 31
0.0
  0
LINE
  8
0
 62
     7
 10
19.406
 20
3.90093
 30
0.0
 11
19.2299
 21
4.03532
 31
0.0
  0
LINE
  8
0
 62
     7
 10
19.2299
 20
4.03532
 30
0.0
 11
19.0283
 21
4.13135
 31
0.0
  0
LINE
  8
0
 62
     7
 10
19.0283
 20
4.13135
 30
0.0
 11
18.8014
 21
4.18896
 31
0.0
  0
LINE
  8
0
 62
     7
 10
18.8014
 20
4.18896
 30
0.0
 11
18.5489
 21
4.20811
 31
0.0
  0
LINE
  8
0
 62
     7
 10
18.5489
 20
4.20811
 30
0.0
 11
18.2083
 21
4.17888
 31
0.0
  0
LINE
  8
0
 62
     7
 10
18.2083
 20
4.17888
 30
0.0
 11
17.9013
 21
4.09082
 31
0.0
  0
LINE
  8
0
 62
     7
 10
18.9342
 20
2.92367
 30
0.0
 11
17.7058
 21
2.92367
 31
0.0
  0
LINE
  8
0
 62
     7
 10
17.7058
 20
2.92367
 30
0.0
 11
17.7578
 21
3.07813
 31
0.0
  0
LINE
  8
0
 62
     7
 10
17.7578
 20
3.07813
 30
0.0
 11
17.8217
 21
3.21197
 31
0.0
  0
LINE
  8
0
 62
     7
 10
17.8217
 20
3.21197
 30
0.0
 11
17.8974
 21
3.32525
 31
0.0
  0
LINE
  8
0
 62
     7
 10
17.8974
 20
3.32525
 30
0.0
 11
17.985
 21
3.41786
 31
0.0
  0
LINE
  8
0
 62
     7
 10
17.985
 20
3.41786
 30
0.0
 11
18.0844
 21
3.48996
 31
0.0
  0
LINE
  8
0
 62
     7
 10
18.0844
 20
3.48996
 30
0.0
 11
18.1957
 21
3.54139
 31
0.0
  0
LINE
  8
0
 62
     7
 10
18.1957
 20
3.54139
 30
0.0
 11
18.3189
 21
3.57232
 31
0.0
  0
LINE
  8
0
 62
     7
 10
18.3189
 20
3.57232
 30
0.0
 11
18.454
 21
3.58257
 31
0.0
  0
LINE
  8
0
 62
     7
 10
18.454
 20
3.58257
 30
0.0
 11
18.5665
 21
3.57362
 31
0.0
  0
LINE
  8
0
 62
     7
 10
18.5665
 20
3.57362
 30
0.0
 11
18.664
 21
3.54665
 31
0.0
  0
LINE
  8
0
 62
     7
 10
18.664
 20
3.54665
 30
0.0
 11
18.7465
 21
3.50174
 31
0.0
  0
LINE
  8
0
 62
     7
 10
18.7465
 20
3.50174
 30
0.0
 11
18.814
 21
3.43886
 31
0.0
  0
LINE
  8
0
 62
     7
 10
18.814
 20
3.43886
 30
0.0
 11
18.8665
 21
3.35796
 31
0.0
  0
LINE
  8
0
 62
     7
 10
18.8665
 20
3.35796
 30
0.0
 11
18.9042
 21
3.25911
 31
0.0
  0
LINE
  8
0
 62
     7
 10
18.9042
 20
3.25911
 30
0.0
 11
18.9265
 21
3.14231
 31
0.0
  0
LINE
  8
0
 62
     7
 10
18.9265
 20
3.14231
 30
0.0
 11
18.9342
 21
3.00749
 31
0.0
  0
LINE
  8
0
 62
     7
 10
18.9342
 20
3.00749
 30
0.0
 11
18.9342
 21
2.92367
 31
0.0
  0
LINE
  8
0
 62
     7
 10
19.7969
 20
1.14214
 30
0.0
 11
20.5786
 21
1.14214
 31
0.0
  0
LINE
  8
0
 62
     7
 10
20.5786
 20
1.14214
 30
0.0
 11
20.9415
 21
2.83979
 31
0.0
  0
LINE
  8
0
 62
     7
 10
20.9415
 20
2.83979
 30
0.0
 11
20.9885
 21
3.00375
 31
0.0
  0
LINE
  8
0
 62
     7
 10
20.9885
 20
3.00375
 30
0.0
 11
21.0511
 21
3.14919
 31
0.0
  0
LINE
  8
0
 62
     7
 10
21.0511
 20
3.14919
 30
0.0
 11
21.1294
 21
3.27604
 31
0.0
  0
LINE
  8
0
 62
     7
 10
21.1294
 20
3.27604
 30
0.0
 11
21.2236
 21
3.38439
 31
0.0
  0
LINE
  8
0
 62
     7
 10
21.2236
 20
3.38439
 30
0.0
 11
21.3301
 21
3.47114
 31
0.0
  0
LINE
  8
0
 62
     7
 10
21.3301
 20
3.47114
 30
0.0
 11
21.4461
 21
3.5331
 31
0.0
  0
LINE
  8
0
 62
     7
 10
21.4461
 20
3.5331
 30
0.0
 11
21.5715
 21
3.57021
 31
0.0
  0
LINE
  8
0
 62
     7
 10
21.5715
 20
3.57021
 30
0.0
 11
21.7064
 21
3.58257
 31
0.0
  0
LINE
  8
0
 62
     7
 10
21.7064
 20
3.58257
 30
0.0
 11
21.8872
 21
3.55642
 31
0.0
  0
LINE
  8
0
 62
     7
 10
21.8872
 20
3.55642
 30
0.0
 11
22.0164
 21
3.47792
 31
0.0
  0
LINE
  8
0
 62
     7
 10
22.0164
 20
3.47792
 30
0.0
 11
22.0939
 21
3.34706
 31
0.0
  0
LINE
  8
0
 62
     7
 10
22.0939
 20
3.34706
 30
0.0
 11
22.1197
 21
3.16385
 31
0.0
  0
LINE
  8
0
 62
     7
 10
22.1197
 20
3.16385
 30
0.0
 11
22.1114
 21
3.05078
 31
0.0
  0
LINE
  8
0
 62
     7
 10
22.1114
 20
3.05078
 30
0.0
 11
22.0862
 21
2.89019
 31
0.0
  0
LINE
  8
0
 62
     7
 10
22.0862
 20
2.89019
 30
0.0
 11
21.7121
 21
1.14214
 31
0.0
  0
LINE
  8
0
 62
     7
 10
21.7121
 20
1.14214
 30
0.0
 11
22.4938
 21
1.14214
 31
0.0
  0
LINE
  8
0
 62
     7
 10
22.4938
 20
1.14214
 30
0.0
 11
22.9236
 21
3.16385
 31
0.0
  0
LINE
  8
0
 62
     7
 10
22.9236
 20
3.16385
 30
0.0
 11
22.9572
 21
3.47092
 31
0.0
  0
LINE
  8
0
 62
     7
 10
22.9572
 20
3.47092
 30
0.0
 11
22.9432
 21
3.63015
 31
0.0
  0
LINE
  8
0
 62
     7
 10
22.9432
 20
3.63015
 30
0.0
 11
22.9014
 21
3.77257
 31
0.0
  0
LINE
  8
0
 62
     7
 10
22.9014
 20
3.77257
 30
0.0
 11
22.8315
 21
3.89822
 31
0.0
  0
LINE
  8
0
 62
     7
 10
22.8315
 20
3.89822
 30
0.0
 11
22.7339
 21
4.00706
 31
0.0
  0
LINE
  8
0
 62
     7
 10
22.7339
 20
4.00706
 30
0.0
 11
22.6128
 21
4.09506
 31
0.0
  0
LINE
  8
0
 62
     7
 10
22.6128
 20
4.09506
 30
0.0
 11
22.4728
 21
4.15788
 31
0.0
  0
LINE
  8
0
 62
     7
 10
22.4728
 20
4.15788
 30
0.0
 11
22.314
 21
4.19558
 31
0.0
  0
LINE
  8
0
 62
     7
 10
22.314
 20
4.19558
 30
0.0
 11
22.1364
 21
4.20811
 31
0.0
  0
LINE
  8
0
 62
     7
 10
22.1364
 20
4.20811
 30
0.0
 11
21.8419
 21
4.17817
 31
0.0
  0
LINE
  8
0
 62
     7
 10
21.8419
 20
4.17817
 30
0.0
 11
21.5836
 21
4.08811
 31
0.0
  0
LINE
  8
0
 62
     7
 10
21.5836
 20
4.08811
 30
0.0
 11
21.3478
 21
3.93099
 31
0.0
  0
LINE
  8
0
 62
     7
 10
21.3478
 20
3.93099
 30
0.0
 11
21.1203
 21
3.69993
 31
0.0
  0
LINE
  8
0
 62
     7
 10
21.1203
 20
3.69993
 30
0.0
 11
21.2208
 21
4.15782
 31
0.0
  0
LINE
  8
0
 62
     7
 10
21.2208
 20
4.15782
 30
0.0
 11
20.439
 21
4.15782
 31
0.0
  0
LINE
  8
0
 62
     7
 10
20.439
 20
4.15782
 30
0.0
 11
19.7969
 21
1.14214
 31
0.0
  0
LINE
  8
0
 62
     7
 10
24.6408
 20
4.09646
 30
0.0
 11
24.8139
 21
4.90631
 31
0.0
  0
LINE
  8
0
 62
     7
 10
24.8139
 20
4.90631
 30
0.0
 11
24.0322
 21
4.90631
 31
0.0
  0
LINE
  8
0
 62
     7
 10
24.0322
 20
4.90631
 30
0.0
 11
23.8592
 21
4.09646
 31
0.0
  0
LINE
  8
0
 62
     7
 10
23.8592
 20
4.09646
 30
0.0
 11
23.4739
 21
4.09646
 31
0.0
  0
LINE
  8
0
 62
     7
 10
23.4739
 20
4.09646
 30
0.0
 11
23.3622
 21
3.5771
 31
0.0
  0
LINE
  8
0
 62
     7
 10
23.3622
 20
3.5771
 30
0.0
 11
23.7475
 21
3.5771
 31
0.0
  0
LINE
  8
0
 62
     7
 10
23.7475
 20
3.5771
 30
0.0
 11
23.3565
 21
1.72293
 31
0.0
  0
LINE
  8
0
 62
     7
 10
23.3565
 20
1.72293
 30
0.0
 11
23.3356
 21
1.60146
 31
0.0
  0
LINE
  8
0
 62
     7
 10
23.3356
 20
1.60146
 30
0.0
 11
23.3286
 21
1.49392
 31
0.0
  0
LINE
  8
0
 62
     7
 10
23.3286
 20
1.49392
 30
0.0
 11
23.3388
 21
1.38591
 31
0.0
  0
LINE
  8
0
 62
     7
 10
23.3388
 20
1.38591
 30
0.0
 11
23.3692
 21
1.29085
 31
0.0
  0
LINE
  8
0
 62
     7
 10
23.3692
 20
1.29085
 30
0.0
 11
23.4197
 21
1.20866
 31
0.0
  0
LINE
  8
0
 62
     7
 10
23.4197
 20
1.20866
 30
0.0
 11
23.4906
 21
1.13938
 31
0.0
  0
LINE
  8
0
 62
     7
 10
23.4906
 20
1.13938
 30
0.0
 11
23.5806
 21
1.08447
 31
0.0
  0
LINE
  8
0
 62
     7
 10
23.5806
 20
1.08447
 30
0.0
 11
23.6887
 21
1.04514
 31
0.0
  0
LINE
  8
0
 62
     7
 10
23.6887
 20
1.04514
 30
0.0
 11
23.8151
 21
1.02159
 31
0.0
  0
LINE
  8
0
 62
     7
 10
23.8151
 20
1.02159
 30
0.0
 11
23.9596
 21
1.01367
 31
0.0
  0
LINE
  8
0
 62
     7
 10
23.9596
 20
1.01367
 30
0.0
 11
24.2067
 21
1.02902
 31
0.0
  0
LINE
  8
0
 62
     7
 10
24.2067
 20
1.02902
 30
0.0
 11
24.4343
 21
1.07503
 31
0.0
  0
LINE
  8
0
 62
     7
 10
24.4343
 20
1.07503
 30
0.0
 11
24.5458
 21
1.62235
 31
0.0
  0
LINE
  8
0
 62
     7
 10
24.5458
 20
1.62235
 30
0.0
 11
24.4413
 21
1.60981
 31
0.0
  0
LINE
  8
0
 62
     7
 10
24.4413
 20
1.60981
 30
0.0
 11
24.3615
 21
1.60558
 31
0.0
  0
LINE
  8
0
 62
     7
 10
24.3615
 20
1.60558
 30
0.0
 11
24.2687
 21
1.61431
 31
0.0
  0
LINE
  8
0
 62
     7
 10
24.2687
 20
1.61431
 30
0.0
 11
24.2024
 21
1.64051
 31
0.0
  0
LINE
  8
0
 62
     7
 10
24.2024
 20
1.64051
 30
0.0
 11
24.1626
 21
1.68414
 31
0.0
  0
LINE
  8
0
 62
     7
 10
24.1626
 20
1.68414
 30
0.0
 11
24.1494
 21
1.74522
 31
0.0
  0
LINE
  8
0
 62
     7
 10
24.1494
 20
1.74522
 30
0.0
 11
24.1515
 21
1.77388
 31
0.0
  0
LINE
  8
0
 62
     7
 10
24.1515
 20
1.77388
 30
0.0
 11
24.1578
 21
1.81511
 31
0.0
  0
LINE
  8
0
 62
     7
 10
24.1578
 20
1.81511
 30
0.0
 11
24.1682
 21
1.86888
 31
0.0
  0
LINE
  8
0
 62
     7
 10
24.1682
 20
1.86888
 30
0.0
 11
24.1829
 21
1.93517
 31
0.0
  0
LINE
  8
0
 62
     7
 10
24.1829
 20
1.93517
 30
0.0
 11
24.5292
 21
3.5771
 31
0.0
  0
LINE
  8
0
 62
     7
 10
24.5292
 20
3.5771
 30
0.0
 11
24.9647
 21
3.5771
 31
0.0
  0
LINE
  8
0
 62
     7
 10
24.9647
 20
3.5771
 30
0.0
 11
25.0764
 21
4.09646
 31
0.0
  0
LINE
  8
0
 62
     7
 10
25.0764
 20
4.09646
 30
0.0
 11
24.6408
 21
4.09646
 31
0.0
  0
LINE
  8
0
 62
     7
 10
4.64871
 20
6.14594
 30
0.0
 11
3.58171
 21
4.09153
 31
0.0
  0
LINE
  8
0
 62
     7
 10
3.58171
 20
4.09153
 30
0.0
 11
3.18078
 21
4.19331
 31
0.0
  0
LINE
  8
0
 62
     7
 10
3.18078
 20
4.19331
 30
0.0
 11
2.7831
 21
4.22754
 31
0.0
  0
LINE
  8
0
 62
     7
 10
2.7831
 20
4.22754
 30
0.0
 11
2.51226
 21
4.21262
 31
0.0
  0
LINE
  8
0
 62
     7
 10
2.51226
 20
4.21262
 30
0.0
 11
2.25092
 21
4.1665
 31
0.0
  0
LINE
  8
0
 62
     7
 10
2.25092
 20
4.1665
 30
0.0
 11
2.00239
 21
4.09
 31
0.0
  0
LINE
  8
0
 62
     7
 10
2.00239
 20
4.09
 30
0.0
 11
1.76992
 21
3.98383
 31
0.0
  0
LINE
  8
0
 62
     7
 10
1.76992
 20
3.98383
 30
0.0
 11
1.55675
 21
3.84874
 31
0.0
  0
LINE
  8
0
 62
     7
 10
1.55675
 20
3.84874
 30
0.0
 11
1.36627
 21
3.68554
 31
0.0
  0
LINE
  8
0
 62
     7
 10
1.36627
 20
3.68554
 30
0.0
 11
1.20171
 21
3.4949
 31
0.0
  0
LINE
  8
0
 62
     7
 10
1.20171
 20
3.4949
 30
0.0
 11
1.06641
 21
3.27756
 31
0.0
  0
LINE
  8
0
 62
     7
 10
1.06641
 20
3.27756
 30
0.0
 11
0.94515
 21
2.97314
 31
0.0
  0
LINE
  8
0
 62
     7
 10
0.94515
 20
2.97314
 30
0.0
 11
0.88699
 21
2.65597
 31
0.0
  0
LINE
  8
0
 62
     7
 10
0.88699
 20
2.65597
 30
0.0
 11
0.889268
 21
2.33285
 31
0.0
  0
LINE
  8
0
 62
     7
 10
0.889268
 20
2.33285
 30
0.0
 11
0.949274
 21
2.01019
 31
0.0
  0
LINE
  8
0
 62
     7
 10
0.949274
 20
2.01019
 30
0.0
 11
1.06429
 21
1.69476
 31
0.0
  0
LINE
  8
0
 62
     7
 10
1.06429
 20
1.69476
 30
0.0
 11
1.23155
 21
1.39307
 31
0.0
  0
LINE
  8
0
 62
     7
 10
1.23155
 20
1.39307
 30
0.0
 11
1.44846
 21
1.11176
 31
0.0
  0
LINE
  8
0
 62
     7
 10
1.44846
 20
1.11176
 30
0.0
 11
1.71224
 21
0.857422
 31
0.0
  0
LINE
  8
0
 62
     7
 10
1.71224
 20
0.857422
 30
0.0
 11
1.54785
 21
1.04715
 31
0.0
  0
LINE
  8
0
 62
     7
 10
1.54785
 20
1.04715
 30
0.0
 11
1.4151
 21
1.25326
 31
0.0
  0
LINE
  8
0
 62
     7
 10
1.4151
 20
1.25326
 30
0.0
 11
1.31559
 21
1.47179
 31
0.0
  0
LINE
  8
0
 62
     7
 10
1.31559
 20
1.47179
 30
0.0
 11
1.25081
 21
1.69857
 31
0.0
  0
LINE
  8
0
 62
     7
 10
1.25081
 20
1.69857
 30
0.0
 11
1.22244
 21
1.92958
 31
0.0
  0
LINE
  8
0
 62
     7
 10
1.22244
 20
1.92958
 30
0.0
 11
1.23193
 21
2.16075
 31
0.0
  0
LINE
  8
0
 62
     7
 10
1.23193
 20
2.16075
 30
0.0
 11
1.28087
 21
2.38797
 31
0.0
  0
LINE
  8
0
 62
     7
 10
1.28087
 20
2.38797
 30
0.0
 11
1.37093
 21
2.60715
 31
0.0
  0
LINE
  8
0
 62
     7
 10
1.37093
 20
2.60715
 30
0.0
 11
1.47803
 21
2.77974
 31
0.0
  0
LINE
  8
0
 62
     7
 10
1.47803
 20
2.77974
 30
0.0
 11
1.60769
 21
2.93121
 31
0.0
  0
LINE
  8
0
 62
     7
 10
1.60769
 20
2.93121
 30
0.0
 11
1.75726
 21
3.06099
 31
0.0
  0
LINE
  8
0
 62
     7
 10
1.75726
 20
3.06099
 30
0.0
 11
1.92404
 21
3.16829
 31
0.0
  0
LINE
  8
0
 62
     7
 10
1.92404
 20
3.16829
 30
0.0
 11
2.10536
 21
3.25256
 31
0.0
  0
LINE
  8
0
 62
     7
 10
2.10536
 20
3.25256
 30
0.0
 11
2.29861
 21
3.3131
 31
0.0
  0
LINE
  8
0
 62
     7
 10
2.29861
 20
3.3131
 30
0.0
 11
2.50108
 21
3.34918
 31
0.0
  0
LINE
  8
0
 62
     7
 10
2.50108
 20
3.34918
 30
0.0
 11
2.71018
 21
3.36019
 31
0.0
  0
LINE
  8
0
 62
     7
 10
2.71018
 20
3.36019
 30
0.0
 11
2.96408
 21
3.33968
 31
0.0
  0
LINE
  8
0
 62
     7
 10
2.96408
 20
3.33968
 30
0.0
 11
3.21918
 21
3.28136
 31
0.0
  0
LINE
  8
0
 62
     7
 10
3.21918
 20
3.28136
 30
0.0
 11
2.28657
 21
0.719239
 31
0.0
  0
LINE
  8
0
 62
     7
 10
2.28657
 20
0.719239
 30
0.0
 11
2.33306
 21
0.774414
 31
0.0
  0
LINE
  8
0
 62
     7
 10
2.33306
 20
0.774414
 30
0.0
 11
3.83274
 21
2.96263
 31
0.0
  0
LINE
  8
0
 62
     7
 10
3.83274
 20
2.96263
 30
0.0
 11
4.04269
 21
2.77061
 31
0.0
  0
LINE
  8
0
 62
     7
 10
4.04269
 20
2.77061
 30
0.0
 11
4.21517
 21
2.55453
 31
0.0
  0
LINE
  8
0
 62
     7
 10
4.21517
 20
2.55453
 30
0.0
 11
4.34804
 21
2.31982
 31
0.0
  0
LINE
  8
0
 62
     7
 10
4.34804
 20
2.31982
 30
0.0
 11
4.43918
 21
2.07221
 31
0.0
  0
LINE
  8
0
 62
     7
 10
4.43918
 20
2.07221
 30
0.0
 11
4.48639
 21
1.81717
 31
0.0
  0
LINE
  8
0
 62
     7
 10
4.48639
 20
1.81717
 30
0.0
 11
4.48753
 21
1.56028
 31
0.0
  0
LINE
  8
0
 62
     7
 10
4.48753
 20
1.56028
 30
0.0
 11
4.44049
 21
1.30718
 31
0.0
  0
LINE
  8
0
 62
     7
 10
4.44049
 20
1.30718
 30
0.0
 11
4.34315
 21
1.06331
 31
0.0
  0
LINE
  8
0
 62
     7
 10
4.34315
 20
1.06331
 30
0.0
 11
4.2156
 21
0.863661
 31
0.0
  0
LINE
  8
0
 62
     7
 10
4.2156
 20
0.863661
 30
0.0
 11
4.05789
 21
0.692925
 31
0.0
  0
LINE
  8
0
 62
     7
 10
4.05789
 20
0.692925
 30
0.0
 11
3.87429
 21
0.552246
 31
0.0
  0
LINE
  8
0
 62
     7
 10
3.87429
 20
0.552246
 30
0.0
 11
3.669
 21
0.4426
 31
0.0
  0
LINE
  8
0
 62
     7
 10
3.669
 20
0.4426
 30
0.0
 11
3.44624
 21
0.365181
 31
0.0
  0
LINE
  8
0
 62
     7
 10
3.44624
 20
0.365181
 30
0.0
 11
3.21029
 21
0.32091
 31
0.0
  0
LINE
  8
0
 62
     7
 10
3.21029
 20
0.32091
 30
0.0
 11
2.96539
 21
0.310981
 31
0.0
  0
LINE
  8
0
 62
     7
 10
2.96539
 20
0.310981
 30
0.0
 11
2.71571
 21
0.336317
 31
0.0
  0
LINE
  8
0
 62
     7
 10
2.71571
 20
0.336317
 30
0.0
 11
3.07547
 21
0.266818
 31
0.0
  0
LINE
  8
0
 62
     7
 10
3.07547
 20
0.266818
 30
0.0
 11
3.43033
 21
0.251139
 31
0.0
  0
LINE
  8
0
 62
     7
 10
3.43033
 20
0.251139
 30
0.0
 11
3.77333
 21
0.287761
 31
0.0
  0
LINE
  8
0
 62
     7
 10
3.77333
 20
0.287761
 30
0.0
 11
4.09754
 21
0.375108
 31
0.0
  0
LINE
  8
0
 62
     7
 10
4.09754
 20
0.375108
 30
0.0
 11
4.396
 21
0.511556
 31
0.0
  0
LINE
  8
0
 62
     7
 10
4.396
 20
0.511556
 30
0.0
 11
4.66174
 21
0.695583
 31
0.0
  0
LINE
  8
0
 62
     7
 10
4.66174
 20
0.695583
 30
0.0
 11
4.88775
 21
0.92551
 31
0.0
  0
LINE
  8
0
 62
     7
 10
4.88775
 20
0.92551
 30
0.0
 11
5.06711
 21
1.19976
 31
0.0
  0
LINE
  8
0
 62
     7
 10
5.06711
 20
1.19976
 30
0.0
 11
5.13921
 21
1.35872
 31
0.0
  0
LINE
  8
0
 62
     7
 10
5.13921
 20
1.35872
 30
0.0
 11
5.19331
 21
1.52208
 31
0.0
  0
LINE
  8
0
 62
     7
 10
5.19331
 20
1.52208
 30
0.0
 11
5.22987
 21
1.68892
 31
0.0
  0
LINE
  8
0
 62
     7
 10
5.22987
 20
1.68892
 30
0.0
 11
5.24924
 21
1.85813
 31
0.0
  0
LINE
  8
0
 62
     7
 10
5.24924
 20
1.85813
 30
0.0
 11
5.25179
 21
2.02886
 31
0.0
  0
LINE
  8
0
 62
     7
 10
5.25179
 20
2.02886
 30
0.0
 11
5.23801
 21
2.20008
 31
0.0
  0
LINE
  8
0
 62
     7
 10
5.23801
 20
2.20008
 30
0.0
 11
5.20817
 21
2.37082
 31
0.0
  0
LINE
  8
0
 62
     7
 10
5.20817
 20
2.37082
 30
0.0
 11
5.16282
 21
2.54015
 31
0.0
  0
LINE
  8
0
 62
     7
 10
5.16282
 20
2.54015
 30
0.0
 11
5.10221
 21
2.70703
 31
0.0
  0
LINE
  8
0
 62
     7
 10
5.10221
 20
2.70703
 30
0.0
 11
5.02681
 21
2.87056
 31
0.0
  0
LINE
  8
0
 62
     7
 10
5.02681
 20
2.87056
 30
0.0
 11
4.93701
 21
3.02968
 31
0.0
  0
LINE
  8
0
 62
     7
 10
4.93701
 20
3.02968
 30
0.0
 11
4.83328
 21
3.18343
 31
0.0
  0
LINE
  8
0
 62
     7
 10
4.83328
 20
3.18343
 30
0.0
 11
4.71588
 21
3.33089
 31
0.0
  0
LINE
  8
0
 62
     7
 10
4.71588
 20
3.33089
 30
0.0
 11
4.58529
 21
3.47103
 31
0.0
  0
LINE
  8
0
 62
     7
 10
4.58529
 20
3.47103
 30
0.0
 11
4.44194
 21
3.60286
 31
0.0
  0
LINE
  8
0
 62
     7
 10
4.44194
 20
3.60286
 30
0.0
 11
4.28618
 21
3.72547
 31
0.0
  0
LINE
  8
0
 62
     7
 10
4.28618
 20
3.72547
 30
0.0
 11
5.35319
 21
5.78
 31
0.0
  0
LINE
  8
0
 62
     7
 10
5.35319
 20
5.78
 30
0.0
 11
4.64871
 21
6.14594
 31
0.0
  0
LINE
  8
0
 62
     7
 10
4.64871
 20
6.14594
 30
0.0
 11
3.58171
 21
4.09153
 31
0.0
  0
LINE
  8
0
 62
     7
 10
3.58171
 20
4.09153
 30
0.0
 11
3.18078
 21
4.19331
 31
0.0
  0
LINE
  8
0
 62
     7
 10
3.18078
 20
4.19331
 30
0.0
 11
2.7831
 21
4.22754
 31
0.0
  0
LINE
  8
0
 62
     7
 10
2.7831
 20
4.22754
 30
0.0
 11
2.51226
 21
4.21262
 31
0.0
  0
LINE
  8
0
 62
     7
 10
2.51226
 20
4.21262
 30
0.0
 11
2.25092
 21
4.1665
 31
0.0
  0
LINE
  8
0
 62
     7
 10
2.25092
 20
4.1665
 30
0.0
 11
2.00239
 21
4.09
 31
0.0
  0
LINE
  8
0
 62
     7
 10
2.00239
 20
4.09
 30
0.0
 11
1.76992
 21
3.98383
 31
0.0
  0
LINE
  8
0
 62
     7
 10
1.76992
 20
3.98383
 30
0.0
 11
1.55675
 21
3.84874
 31
0.0
  0
LINE
  8
0
 62
     7
 10
1.55675
 20
3.84874
 30
0.0
 11
1.36627
 21
3.68554
 31
0.0
  0
LINE
  8
0
 62
     7
 10
1.36627
 20
3.68554
 30
0.0
 11
1.20171
 21
3.4949
 31
0.0
  0
LINE
  8
0
 62
     7
 10
1.20171
 20
3.4949
 30
0.0
 11
1.06641
 21
3.27756
 31
0.0
  0
LINE
  8
0
 62
     7
 10
1.06641
 20
3.27756
 30
0.0
 11
0.94515
 21
2.97314
 31
0.0
  0
LINE
  8
0
 62
     7
 10
0.94515
 20
2.97314
 30
0.0
 11
0.88699
 21
2.65597
 31
0.0
  0
LINE
  8
0
 62
     7
 10
0.88699
 20
2.65597
 30
0.0
 11
0.889268
 21
2.33285
 31
0.0
  0
LINE
  8
0
 62
     7
 10
0.889268
 20
2.33285
 30
0.0
 11
0.949274
 21
2.01019
 31
0.0
  0
LINE
  8
0
 62
     7
 10
0.949274
 20
2.01019
 30
0.0
 11
1.06429
 21
1.69476
 31
0.0
  0
LINE
  8
0
 62
     7
 10
1.06429
 20
1.69476
 30
0.0
 11
1.23155
 21
1.39307
 31
0.0
  0
LINE
  8
0
 62
     7
 10
1.23155
 20
1.39307
 30
0.0
 11
1.44846
 21
1.11176
 31
0.0
  0
LINE
  8
0
 62
     7
 10
1.44846
 20
1.11176
 30
0.0
 11
1.71224
 21
0.857422
 31
0.0
  0
LINE
  8
0
 62
     7
 10
1.71224
 20
0.857422
 30
0.0
 11
1.54785
 21
1.04715
 31
0.0
  0
LINE
  8
0
 62
     7
 10
1.54785
 20
1.04715
 30
0.0
 11
1.4151
 21
1.25326
 31
0.0
  0
LINE
  8
0
 62
     7
 10
1.4151
 20
1.25326
 30
0.0
 11
1.31559
 21
1.47179
 31
0.0
  0
LINE
  8
0
 62
     7
 10
1.31559
 20
1.47179
 30
0.0
 11
1.25081
 21
1.69857
 31
0.0
  0
LINE
  8
0
 62
     7
 10
1.25081
 20
1.69857
 30
0.0
 11
1.22244
 21
1.92958
 31
0.0
  0
LINE
  8
0
 62
     7
 10
1.22244
 20
1.92958
 30
0.0
 11
1.23193
 21
2.16075
 31
0.0
  0
LINE
  8
0
 62
     7
 10
1.23193
 20
2.16075
 30
0.0
 11
1.28087
 21
2.38797
 31
0.0
  0
LINE
  8
0
 62
     7
 10
1.28087
 20
2.38797
 30
0.0
 11
1.37093
 21
2.60715
 31
0.0
  0
LINE
  8
0
 62
     7
 10
1.37093
 20
2.60715
 30
0.0
 11
1.47803
 21
2.77974
 31
0.0
  0
LINE
  8
0
 62
     7
 10
1.47803
 20
2.77974
 30
0.0
 11
1.60769
 21
2.93121
 31
0.0
  0
LINE
  8
0
 62
     7
 10
1.60769
 20
2.93121
 30
0.0
 11
1.75726
 21
3.06099
 31
0.0
  0
LINE
  8
0
 62
     7
 10
1.75726
 20
3.06099
 30
0.0
 11
1.92404
 21
3.16829
 31
0.0
  0
LINE
  8
0
 62
     7
 10
1.92404
 20
3.16829
 30
0.0
 11
2.10536
 21
3.25256
 31
0.0
  0
LINE
  8
0
 62
     7
 10
2.10536
 20
3.25256
 30
0.0
 11
2.29861
 21
3.3131
 31
0.0
  0
LINE
  8
0
 62
     7
 10
2.29861
 20
3.3131
 30
0.0
 11
2.50108
 21
3.34918
 31
0.0
  0
LINE
  8
0
 62
     7
 10
2.50108
 20
3.34918
 30
0.0
 11
2.71018
 21
3.36019
 31
0.0
  0
LINE
  8
0
 62
     7
 10
2.71018
 20
3.36019
 30
0.0
 11
2.96408
 21
3.33968
 31
0.0
  0
LINE
  8
0
 62
     7
 10
2.96408
 20
3.33968
 30
0.0
 11
3.21918
 21
3.28136
 31
0.0
  0
LINE
  8
0
 62
     7
 10
3.21918
 20
3.28136
 30
0.0
 11
2.28657
 21
0.719239
 31
0.0
  0
LINE
  8
0
 62
     7
 10
2.28657
 20
0.719239
 30
0.0
 11
2.33306
 21
0.774414
 31
0.0
  0
LINE
  8
0
 62
     7
 10
2.33306
 20
0.774414
 30
0.0
 11
3.83274
 21
2.96263
 31
0.0
  0
LINE
  8
0
 62
     7
 10
3.83274
 20
2.96263
 30
0.0
 11
4.04269
 21
2.77061
 31
0.0
  0
LINE
  8
0
 62
     7
 10
4.04269
 20
2.77061
 30
0.0
 11
4.21517
 21
2.55453
 31
0.0
  0
LINE
  8
0
 62
     7
 10
4.21517
 20
2.55453
 30
0.0
 11
4.34804
 21
2.31982
 31
0.0
  0
LINE
  8
0
 62
     7
 10
4.34804
 20
2.31982
 30
0.0
 11
4.43918
 21
2.07221
 31
0.0
  0
LINE
  8
0
 62
     7
 10
4.43918
 20
2.07221
 30
0.0
 11
4.48639
 21
1.81717
 31
0.0
  0
LINE
  8
0
 62
     7
 10
4.48639
 20
1.81717
 30
0.0
 11
4.48753
 21
1.56028
 31
0.0
  0
LINE
  8
0
 62
     7
 10
4.48753
 20
1.56028
 30
0.0
 11
4.44049
 21
1.30718
 31
0.0
  0
LINE
  8
0
 62
     7
 10
4.44049
 20
1.30718
 30
0.0
 11
4.34315
 21
1.06331
 31
0.0
  0
LINE
  8
0
 62
     7
 10
4.34315
 20
1.06331
 30
0.0
 11
4.2156
 21
0.863661
 31
0.0
  0
LINE
  8
0
 62
     7
 10
4.2156
 20
0.863661
 30
0.0
 11
4.05789
 21
0.692925
 31
0.0
  0
LINE
  8
0
 62
     7
 10
4.05789
 20
0.692925
 30
0.0
 11
3.87429
 21
0.552246
 31
0.0
  0
LINE
  8
0
 62
     7
 10
3.87429
 20
0.552246
 30
0.0
 11
3.669
 21
0.4426
 31
0.0
  0
LINE
  8
0
 62
     7
 10
3.669
 20
0.4426
 30
0.0
 11
3.44624
 21
0.365181
 31
0.0
  0
LINE
  8
0
 62
     7
 10
3.44624
 20
0.365181
 30
0.0
 11
3.21029
 21
0.32091
 31
0.0
  0
LINE
  8
0
 62
     7
 10
3.21029
 20
0.32091
 30
0.0
 11
2.96539
 21
0.310981
 31
0.0
  0
LINE
  8
0
 62
     7
 10
2.96539
 20
0.310981
 30
0.0
 11
2.71571
 21
0.336317
 31
0.0
  0
LINE
  8
0
 62
     7
 10
2.71571
 20
0.336317
 30
0.0
 11
3.07547
 21
0.266818
 31
0.0
  0
LINE
  8
0
 62
     7
 10
3.07547
 20
0.266818
 30
0.0
 11
3.43033
 21
0.251139
 31
0.0
  0
LINE
  8
0
 62
     7
 10
3.43033
 20
0.251139
 30
0.0
 11
3.77333
 21
0.287761
 31
0.0
  0
LINE
  8
0
 62
     7
 10
3.77333
 20
0.287761
 30
0.0
 11
4.09754
 21
0.375108
 31
0.0
  0
LINE
  8
0
 62
     7
 10
4.09754
 20
0.375108
 30
0.0
 11
4.396
 21
0.511556
 31
0.0
  0
LINE
  8
0
 62
     7
 10
4.396
 20
0.511556
 30
0.0
 11
4.66174
 21
0.695583
 31
0.0
  0
LINE
  8
0
 62
     7
 10
4.66174
 20
0.695583
 30
0.0
 11
4.88775
 21
0.92551
 31
0.0
  0
LINE
  8
0
 62
     7
 10
4.88775
 20
0.92551
 30
0.0
 11
5.06711
 21
1.19976
 31
0.0
  0
LINE
  8
0
 62
     7
 10
5.06711
 20
1.19976
 30
0.0
 11
5.13921
 21
1.35872
 31
0.0
  0
LINE
  8
0
 62
     7
 10
5.13921
 20
1.35872
 30
0.0
 11
5.19331
 21
1.52208
 31
0.0
  0
LINE
  8
0
 62
     7
 10
5.19331
 20
1.52208
 30
0.0
 11
5.22987
 21
1.68892
 31
0.0
  0
LINE
  8
0
 62
     7
 10
5.22987
 20
1.68892
 30
0.0
 11
5.24924
 21
1.85813
 31
0.0
  0
LINE
  8
0
 62
     7
 10
5.24924
 20
1.85813
 30
0.0
 11
5.25179
 21
2.02886
 31
0.0
  0
LINE
  8
0
 62
     7
 10
5.25179
 20
2.02886
 30
0.0
 11
5.23801
 21
2.20008
 31
0.0
  0
LINE
  8
0
 62
     7
 10
5.23801
 20
2.20008
 30
0.0
 11
5.20817
 21
2.37082
 31
0.0
  0
LINE
  8
0
 62
     7
 10
5.20817
 20
2.37082
 30
0.0
 11
5.16282
 21
2.54015
 31
0.0
  0
LINE
  8
0
 62
     7
 10
5.16282
 20
2.54015
 30
0.0
 11
5.10221
 21
2.70703
 31
0.0
  0
LINE
  8
0
 62
     7
 10
5.10221
 20
2.70703
 30
0.0
 11
5.02681
 21
2.87056
 31
0.0
  0
LINE
  8
0
 62
     7
 10
5.02681
 20
2.87056
 30
0.0
 11
4.93701
 21
3.02968
 31
0.0
  0
LINE
  8
0
 62
     7
 10
4.93701
 20
3.02968
 30
0.0
 11
4.83328
 21
3.18343
 31
0.0
  0
LINE
  8
0
 62
     7
 10
4.83328
 20
3.18343
 30
0.0
 11
4.71588
 21
3.33089
 31
0.0
  0
LINE
  8
0
 62
     7
 10
4.71588
 20
3.33089
 30
0.0
 11
4.58529
 21
3.47103
 31
0.0
  0
LINE
  8
0
 62
     7
 10
4.58529
 20
3.47103
 30
0.0
 11
4.44194
 21
3.60286
 31
0.0
  0
LINE
  8
0
 62
     7
 10
4.44194
 20
3.60286
 30
0.0
 11
4.28618
 21
3.72547
 31
0.0
  0
LINE
  8
0
 62
     7
 10
4.28618
 20
3.72547
 30
0.0
 11
5.35319
 21
5.78
 31
0.0
  0
LINE
  8
0
 62
     7
 10
5.35319
 20
5.78
 30
0.0
 11
4.64871
 21
6.14594
 31
0.0
  0
ENDSEC
  0
EOF
